<mxfile host="app.diagrams.net" modified="2020-12-14T09:53:33.179Z" agent="5.0 (Windows NT 10.0; Win64; x64) AppleWebKit/537.36 (KHTML, like Gecko) Chrome/87.0.4280.88 Safari/537.36" etag="Q9c0Oe5e9HXiBhLPxcri" version="14.0.1" type="github">
  <diagram id="prtHgNgQTEPvFCAcTncT" name="Page-1">
    <mxGraphModel dx="1128" dy="597" grid="1" gridSize="10" guides="1" tooltips="1" connect="1" arrows="1" fold="1" page="1" pageScale="1" pageWidth="1169" pageHeight="827" math="0" shadow="0">
      <root>
        <mxCell id="0" />
        <mxCell id="1" parent="0" />
        <mxCell id="HfOS3BHASftBbdev7kgE-2" value="&lt;font style=&quot;font-size: 20px&quot;&gt;Swim Lane Flowchart of Insertion and Extraction Force Test Automation System&lt;/font&gt;" style="text;html=1;strokeColor=none;fillColor=none;align=center;verticalAlign=middle;whiteSpace=wrap;rounded=0;" parent="1" vertex="1">
          <mxGeometry x="10" width="1150" height="40" as="geometry" />
        </mxCell>
        <mxCell id="dNxyNK7c78bLwvsdeMH5-19" value="&lt;font style=&quot;font-size: 16px&quot;&gt;Test Automation System&lt;/font&gt;" style="swimlane;html=1;childLayout=stackLayout;resizeParent=1;resizeParentMax=0;horizontal=0;startSize=30;horizontalStack=0;direction=east;swimlaneLine=1;rounded=0;" parent="1" vertex="1">
          <mxGeometry x="10" y="42" width="1150" height="781" as="geometry">
            <mxRectangle x="10" y="120" width="30" height="440" as="alternateBounds" />
          </mxGeometry>
        </mxCell>
        <mxCell id="dNxyNK7c78bLwvsdeMH5-20" value="&lt;font style=&quot;font-size: 14px&quot;&gt;Universal Robot Operation Platform&lt;/font&gt;" style="swimlane;html=1;startSize=30;horizontal=0;direction=east;" parent="dNxyNK7c78bLwvsdeMH5-19" vertex="1">
          <mxGeometry x="30" width="1120" height="310" as="geometry">
            <mxRectangle x="30" width="1120" height="30" as="alternateBounds" />
          </mxGeometry>
        </mxCell>
        <mxCell id="nUQ44olHulVj-gxKj5vN-3" value="" style="ellipse;html=1;shape=endState;fillColor=#000000;" parent="dNxyNK7c78bLwvsdeMH5-20" vertex="1">
          <mxGeometry x="1085" y="110" width="30" height="30" as="geometry" />
        </mxCell>
        <mxCell id="nUQ44olHulVj-gxKj5vN-4" value="" style="ellipse;fillColor=#000000;strokeColor=none;" parent="dNxyNK7c78bLwvsdeMH5-20" vertex="1">
          <mxGeometry x="40" y="110" width="30" height="30" as="geometry" />
        </mxCell>
        <mxCell id="nUQ44olHulVj-gxKj5vN-5" value="Start" style="text;align=center;fontStyle=1;verticalAlign=middle;spacingLeft=3;spacingRight=3;strokeColor=none;rotatable=0;points=[[0,0.5],[1,0.5]];portConstraint=eastwest;" parent="dNxyNK7c78bLwvsdeMH5-20" vertex="1">
          <mxGeometry x="35" y="84" width="40" height="26" as="geometry" />
        </mxCell>
        <mxCell id="nUQ44olHulVj-gxKj5vN-6" value="End" style="text;align=center;fontStyle=1;verticalAlign=middle;spacingLeft=3;spacingRight=3;strokeColor=none;rotatable=0;points=[[0,0.5],[1,0.5]];portConstraint=eastwest;" parent="dNxyNK7c78bLwvsdeMH5-20" vertex="1">
          <mxGeometry x="1080" y="84" width="40" height="26" as="geometry" />
        </mxCell>
        <mxCell id="r1U6TLojHARvJoq6I-ag-4" style="edgeStyle=orthogonalEdgeStyle;rounded=0;orthogonalLoop=1;jettySize=auto;html=1;exitX=0.5;exitY=1;exitDx=0;exitDy=0;strokeColor=#000000;" parent="dNxyNK7c78bLwvsdeMH5-20" source="nUQ44olHulVj-gxKj5vN-67" target="nUQ44olHulVj-gxKj5vN-70" edge="1">
          <mxGeometry relative="1" as="geometry" />
        </mxCell>
        <mxCell id="nUQ44olHulVj-gxKj5vN-67" value="Set up" style="rounded=1;whiteSpace=wrap;html=1;strokeColor=#000000;" parent="dNxyNK7c78bLwvsdeMH5-20" vertex="1">
          <mxGeometry x="180" y="10" width="80" height="22" as="geometry" />
        </mxCell>
        <mxCell id="nUQ44olHulVj-gxKj5vN-70" value="" style="html=1;points=[];perimeter=orthogonalPerimeter;fillColor=#000000;strokeColor=none;rotation=90;" parent="dNxyNK7c78bLwvsdeMH5-20" vertex="1">
          <mxGeometry x="216.25" y="21" width="7.5" height="75" as="geometry" />
        </mxCell>
        <mxCell id="nUQ44olHulVj-gxKj5vN-74" value="" style="html=1;points=[];perimeter=orthogonalPerimeter;fillColor=#000000;strokeColor=none;" parent="dNxyNK7c78bLwvsdeMH5-20" vertex="1">
          <mxGeometry x="1010" y="8" width="5" height="111" as="geometry" />
        </mxCell>
        <mxCell id="r1U6TLojHARvJoq6I-ag-1" style="edgeStyle=orthogonalEdgeStyle;rounded=0;orthogonalLoop=1;jettySize=auto;html=1;exitX=1;exitY=0.5;exitDx=0;exitDy=0;" parent="dNxyNK7c78bLwvsdeMH5-20" source="nUQ44olHulVj-gxKj5vN-90" edge="1">
          <mxGeometry relative="1" as="geometry">
            <mxPoint x="1010" y="49" as="targetPoint" />
          </mxGeometry>
        </mxCell>
        <mxCell id="nUQ44olHulVj-gxKj5vN-90" value="loop 1" style="rhombus;whiteSpace=wrap;html=1;strokeColor=#000000;" parent="dNxyNK7c78bLwvsdeMH5-20" vertex="1">
          <mxGeometry x="930" y="38" width="60" height="22" as="geometry" />
        </mxCell>
        <mxCell id="nUQ44olHulVj-gxKj5vN-93" style="edgeStyle=none;rounded=1;orthogonalLoop=1;jettySize=auto;html=1;exitX=0.5;exitY=0;exitDx=0;exitDy=0;entryX=0.5;entryY=1;entryDx=0;entryDy=0;" parent="dNxyNK7c78bLwvsdeMH5-20" source="nUQ44olHulVj-gxKj5vN-92" target="nUQ44olHulVj-gxKj5vN-90" edge="1">
          <mxGeometry relative="1" as="geometry" />
        </mxCell>
        <mxCell id="nUQ44olHulVj-gxKj5vN-92" value="loop 2" style="rhombus;whiteSpace=wrap;html=1;strokeColor=#000000;" parent="dNxyNK7c78bLwvsdeMH5-20" vertex="1">
          <mxGeometry x="930" y="76" width="60" height="22" as="geometry" />
        </mxCell>
        <mxCell id="nUQ44olHulVj-gxKj5vN-94" value="End" style="text;html=1;strokeColor=none;fillColor=none;align=center;verticalAlign=middle;whiteSpace=wrap;rounded=0;" parent="dNxyNK7c78bLwvsdeMH5-20" vertex="1">
          <mxGeometry x="970" y="26" width="40" height="20" as="geometry" />
        </mxCell>
        <mxCell id="nUQ44olHulVj-gxKj5vN-95" value="End" style="text;html=1;strokeColor=none;fillColor=none;align=center;verticalAlign=middle;whiteSpace=wrap;rounded=0;" parent="dNxyNK7c78bLwvsdeMH5-20" vertex="1">
          <mxGeometry x="970" y="67.5" width="40" height="13" as="geometry" />
        </mxCell>
        <mxCell id="nUQ44olHulVj-gxKj5vN-99" style="edgeStyle=orthogonalEdgeStyle;rounded=1;orthogonalLoop=1;jettySize=auto;html=1;exitX=0.5;exitY=1;exitDx=0;exitDy=0;entryX=0.5;entryY=0;entryDx=0;entryDy=0;" parent="dNxyNK7c78bLwvsdeMH5-20" source="nUQ44olHulVj-gxKj5vN-97" target="nUQ44olHulVj-gxKj5vN-98" edge="1">
          <mxGeometry relative="1" as="geometry" />
        </mxCell>
        <mxCell id="nUQ44olHulVj-gxKj5vN-97" value="Load and Start Program" style="rounded=1;whiteSpace=wrap;html=1;strokeColor=#000000;" parent="dNxyNK7c78bLwvsdeMH5-20" vertex="1">
          <mxGeometry x="180" y="84" width="80" height="30" as="geometry" />
        </mxCell>
        <mxCell id="nUQ44olHulVj-gxKj5vN-105" style="edgeStyle=orthogonalEdgeStyle;rounded=1;orthogonalLoop=1;jettySize=auto;html=1;exitX=0.5;exitY=1;exitDx=0;exitDy=0;entryX=0.5;entryY=0;entryDx=0;entryDy=0;" parent="dNxyNK7c78bLwvsdeMH5-20" source="nUQ44olHulVj-gxKj5vN-98" target="nUQ44olHulVj-gxKj5vN-104" edge="1">
          <mxGeometry relative="1" as="geometry" />
        </mxCell>
        <mxCell id="nUQ44olHulVj-gxKj5vN-98" value="Change pallet" style="rounded=1;whiteSpace=wrap;html=1;strokeColor=#000000;" parent="dNxyNK7c78bLwvsdeMH5-20" vertex="1">
          <mxGeometry x="180" y="134.5" width="80" height="20" as="geometry" />
        </mxCell>
        <mxCell id="nUQ44olHulVj-gxKj5vN-100" value="" style="endArrow=classic;html=1;entryX=0.5;entryY=0;entryDx=0;entryDy=0;" parent="dNxyNK7c78bLwvsdeMH5-20" source="nUQ44olHulVj-gxKj5vN-70" target="nUQ44olHulVj-gxKj5vN-97" edge="1">
          <mxGeometry width="50" height="50" relative="1" as="geometry">
            <mxPoint x="310" y="89.25" as="sourcePoint" />
            <mxPoint x="360" y="39.25" as="targetPoint" />
          </mxGeometry>
        </mxCell>
        <mxCell id="nUQ44olHulVj-gxKj5vN-102" value="Continue" style="text;html=1;strokeColor=none;fillColor=none;align=center;verticalAlign=middle;whiteSpace=wrap;rounded=0;" parent="dNxyNK7c78bLwvsdeMH5-20" vertex="1">
          <mxGeometry x="900" y="32" width="50" height="8" as="geometry" />
        </mxCell>
        <mxCell id="mG6_NIqGRWCfFRHksOBy-77" style="edgeStyle=orthogonalEdgeStyle;rounded=0;jumpStyle=arc;orthogonalLoop=1;jettySize=auto;html=1;exitX=0.5;exitY=1;exitDx=0;exitDy=0;entryX=0.5;entryY=0;entryDx=0;entryDy=0;endArrow=classic;endFill=1;" edge="1" parent="dNxyNK7c78bLwvsdeMH5-20" source="nUQ44olHulVj-gxKj5vN-104" target="r1U6TLojHARvJoq6I-ag-5">
          <mxGeometry relative="1" as="geometry" />
        </mxCell>
        <mxCell id="nUQ44olHulVj-gxKj5vN-104" value="Take &amp;amp; place RRP to PGN platform" style="rounded=1;whiteSpace=wrap;html=1;strokeColor=#000000;" parent="dNxyNK7c78bLwvsdeMH5-20" vertex="1">
          <mxGeometry x="180" y="176" width="80" height="44" as="geometry" />
        </mxCell>
        <mxCell id="nUQ44olHulVj-gxKj5vN-107" value="Continue" style="text;html=1;strokeColor=none;fillColor=none;align=center;verticalAlign=middle;whiteSpace=wrap;rounded=0;" parent="dNxyNK7c78bLwvsdeMH5-20" vertex="1">
          <mxGeometry x="900" y="66.5" width="50" height="15" as="geometry" />
        </mxCell>
        <mxCell id="nUQ44olHulVj-gxKj5vN-110" value="End Program" style="rounded=1;whiteSpace=wrap;html=1;strokeColor=#000000;" parent="dNxyNK7c78bLwvsdeMH5-20" vertex="1">
          <mxGeometry x="1020" y="34" width="50" height="30" as="geometry" />
        </mxCell>
        <mxCell id="mG6_NIqGRWCfFRHksOBy-78" style="edgeStyle=orthogonalEdgeStyle;rounded=0;jumpStyle=arc;orthogonalLoop=1;jettySize=auto;html=1;exitX=0;exitY=0.5;exitDx=0;exitDy=0;entryX=1;entryY=0.925;entryDx=0;entryDy=0;entryPerimeter=0;endArrow=blockThin;endFill=1;dashed=1;dashPattern=1 2;" edge="1" parent="dNxyNK7c78bLwvsdeMH5-20" source="r1U6TLojHARvJoq6I-ag-5" target="mG6_NIqGRWCfFRHksOBy-71">
          <mxGeometry relative="1" as="geometry" />
        </mxCell>
        <mxCell id="mG6_NIqGRWCfFRHksOBy-84" style="edgeStyle=orthogonalEdgeStyle;rounded=0;jumpStyle=arc;orthogonalLoop=1;jettySize=auto;html=1;exitX=1;exitY=0.5;exitDx=0;exitDy=0;entryX=0;entryY=0.5;entryDx=0;entryDy=0;endArrow=classic;endFill=1;" edge="1" parent="dNxyNK7c78bLwvsdeMH5-20" source="r1U6TLojHARvJoq6I-ag-5" target="r1U6TLojHARvJoq6I-ag-26">
          <mxGeometry relative="1" as="geometry" />
        </mxCell>
        <mxCell id="r1U6TLojHARvJoq6I-ag-5" value="Take stick &amp;amp; Request vision check" style="rounded=0;whiteSpace=wrap;html=1;strokeColor=#000000;" parent="dNxyNK7c78bLwvsdeMH5-20" vertex="1">
          <mxGeometry x="180" y="242.5" width="80" height="42" as="geometry" />
        </mxCell>
        <mxCell id="r1U6TLojHARvJoq6I-ag-17" value="Error or Failure handling" style="rounded=1;whiteSpace=wrap;html=1;strokeColor=#000000;" parent="dNxyNK7c78bLwvsdeMH5-20" vertex="1">
          <mxGeometry x="990" y="133" width="62.5" height="50" as="geometry" />
        </mxCell>
        <mxCell id="r1U6TLojHARvJoq6I-ag-21" value="" style="html=1;points=[];perimeter=orthogonalPerimeter;fillColor=#000000;strokeColor=none;rotation=-90;" parent="dNxyNK7c78bLwvsdeMH5-20" vertex="1">
          <mxGeometry x="957.5" y="74.5" width="5" height="82" as="geometry" />
        </mxCell>
        <mxCell id="r1U6TLojHARvJoq6I-ag-20" style="edgeStyle=orthogonalEdgeStyle;rounded=0;orthogonalLoop=1;jettySize=auto;html=1;endArrow=classic;endFill=1;strokeColor=#000000;exitX=0;exitY=0.5;exitDx=0;exitDy=0;" parent="dNxyNK7c78bLwvsdeMH5-20" source="r1U6TLojHARvJoq6I-ag-17" edge="1">
          <mxGeometry relative="1" as="geometry">
            <mxPoint x="973" y="116" as="targetPoint" />
            <mxPoint x="980" y="148" as="sourcePoint" />
            <Array as="points">
              <mxPoint x="990" y="158" />
              <mxPoint x="973" y="158" />
            </Array>
          </mxGeometry>
        </mxCell>
        <mxCell id="mG6_NIqGRWCfFRHksOBy-88" style="edgeStyle=orthogonalEdgeStyle;rounded=0;jumpStyle=arc;orthogonalLoop=1;jettySize=auto;html=1;exitX=0.5;exitY=0;exitDx=0;exitDy=0;entryX=0.5;entryY=1;entryDx=0;entryDy=0;endArrow=classic;endFill=1;" edge="1" parent="dNxyNK7c78bLwvsdeMH5-20" source="r1U6TLojHARvJoq6I-ag-26" target="r1U6TLojHARvJoq6I-ag-31">
          <mxGeometry relative="1" as="geometry" />
        </mxCell>
        <mxCell id="r1U6TLojHARvJoq6I-ag-26" value="Continue" style="rhombus;whiteSpace=wrap;html=1;" parent="dNxyNK7c78bLwvsdeMH5-20" vertex="1">
          <mxGeometry x="310" y="246.25" width="80" height="34.5" as="geometry" />
        </mxCell>
        <mxCell id="r1U6TLojHARvJoq6I-ag-30" value="no" style="text;html=1;strokeColor=none;fillColor=none;align=center;verticalAlign=middle;whiteSpace=wrap;rounded=0;" parent="dNxyNK7c78bLwvsdeMH5-20" vertex="1">
          <mxGeometry x="390" y="242.5" width="20" height="20" as="geometry" />
        </mxCell>
        <mxCell id="mG6_NIqGRWCfFRHksOBy-90" style="edgeStyle=orthogonalEdgeStyle;rounded=0;jumpStyle=arc;orthogonalLoop=1;jettySize=auto;html=1;exitX=0.5;exitY=0;exitDx=0;exitDy=0;entryX=0.5;entryY=1;entryDx=0;entryDy=0;endArrow=classic;endFill=1;" edge="1" parent="dNxyNK7c78bLwvsdeMH5-20" source="r1U6TLojHARvJoq6I-ag-31" target="r1U6TLojHARvJoq6I-ag-150">
          <mxGeometry relative="1" as="geometry" />
        </mxCell>
        <mxCell id="r1U6TLojHARvJoq6I-ag-31" value="Prepare test and request recording" style="rounded=0;whiteSpace=wrap;html=1;strokeColor=#000000;" parent="dNxyNK7c78bLwvsdeMH5-20" vertex="1">
          <mxGeometry x="310" y="181" width="80" height="44" as="geometry" />
        </mxCell>
        <mxCell id="r1U6TLojHARvJoq6I-ag-33" value="yes" style="text;html=1;strokeColor=none;fillColor=none;align=center;verticalAlign=middle;whiteSpace=wrap;rounded=0;" parent="dNxyNK7c78bLwvsdeMH5-20" vertex="1">
          <mxGeometry x="350" y="226.25" width="30" height="20" as="geometry" />
        </mxCell>
        <mxCell id="mG6_NIqGRWCfFRHksOBy-91" style="edgeStyle=orthogonalEdgeStyle;rounded=0;jumpStyle=arc;orthogonalLoop=1;jettySize=auto;html=1;exitX=0.5;exitY=0;exitDx=0;exitDy=0;entryX=0.5;entryY=1;entryDx=0;entryDy=0;endArrow=classic;endFill=1;" edge="1" parent="dNxyNK7c78bLwvsdeMH5-20" source="r1U6TLojHARvJoq6I-ag-150" target="r1U6TLojHARvJoq6I-ag-152">
          <mxGeometry relative="1" as="geometry" />
        </mxCell>
        <mxCell id="r1U6TLojHARvJoq6I-ag-150" value="Insertion Test" style="rounded=1;whiteSpace=wrap;html=1;strokeColor=#000000;" parent="dNxyNK7c78bLwvsdeMH5-20" vertex="1">
          <mxGeometry x="310" y="134.5" width="80" height="31" as="geometry" />
        </mxCell>
        <mxCell id="mG6_NIqGRWCfFRHksOBy-95" style="edgeStyle=orthogonalEdgeStyle;rounded=0;jumpStyle=arc;orthogonalLoop=1;jettySize=auto;html=1;exitX=0.5;exitY=0;exitDx=0;exitDy=0;entryX=0.5;entryY=1;entryDx=0;entryDy=0;endArrow=classic;endFill=1;" edge="1" parent="dNxyNK7c78bLwvsdeMH5-20" source="r1U6TLojHARvJoq6I-ag-152" target="mG6_NIqGRWCfFRHksOBy-55">
          <mxGeometry relative="1" as="geometry" />
        </mxCell>
        <mxCell id="r1U6TLojHARvJoq6I-ag-152" value="Request stop recording" style="rounded=0;whiteSpace=wrap;html=1;strokeColor=#000000;" parent="dNxyNK7c78bLwvsdeMH5-20" vertex="1">
          <mxGeometry x="310" y="88" width="80" height="31" as="geometry" />
        </mxCell>
        <mxCell id="mG6_NIqGRWCfFRHksOBy-108" style="edgeStyle=orthogonalEdgeStyle;rounded=0;jumpStyle=arc;orthogonalLoop=1;jettySize=auto;html=1;exitX=0.5;exitY=1;exitDx=0;exitDy=0;entryX=0.5;entryY=0;entryDx=0;entryDy=0;endArrow=classic;endFill=1;" edge="1" parent="dNxyNK7c78bLwvsdeMH5-20" source="mG6_NIqGRWCfFRHksOBy-2" target="mG6_NIqGRWCfFRHksOBy-107">
          <mxGeometry relative="1" as="geometry" />
        </mxCell>
        <mxCell id="mG6_NIqGRWCfFRHksOBy-2" value="Prepare for PDSP Test &amp;amp; Use Vision feedback&amp;nbsp;" style="rounded=0;whiteSpace=wrap;html=1;strokeColor=#000000;" vertex="1" parent="dNxyNK7c78bLwvsdeMH5-20">
          <mxGeometry x="440" y="60" width="80" height="54.25" as="geometry" />
        </mxCell>
        <mxCell id="mG6_NIqGRWCfFRHksOBy-101" style="edgeStyle=orthogonalEdgeStyle;rounded=0;jumpStyle=arc;orthogonalLoop=1;jettySize=auto;html=1;exitX=1;exitY=0.25;exitDx=0;exitDy=0;entryX=0;entryY=0.5;entryDx=0;entryDy=0;endArrow=classic;endFill=1;" edge="1" parent="dNxyNK7c78bLwvsdeMH5-20" source="mG6_NIqGRWCfFRHksOBy-55" target="mG6_NIqGRWCfFRHksOBy-62">
          <mxGeometry relative="1" as="geometry" />
        </mxCell>
        <mxCell id="mG6_NIqGRWCfFRHksOBy-55" value="Take RRP with stick &amp;amp; Request vision check" style="rounded=0;whiteSpace=wrap;html=1;strokeColor=#000000;" vertex="1" parent="dNxyNK7c78bLwvsdeMH5-20">
          <mxGeometry x="310" y="11" width="80" height="56.5" as="geometry" />
        </mxCell>
        <mxCell id="mG6_NIqGRWCfFRHksOBy-106" style="edgeStyle=orthogonalEdgeStyle;rounded=0;jumpStyle=arc;orthogonalLoop=1;jettySize=auto;html=1;exitX=0.5;exitY=1;exitDx=0;exitDy=0;endArrow=classic;endFill=1;" edge="1" parent="dNxyNK7c78bLwvsdeMH5-20" source="mG6_NIqGRWCfFRHksOBy-62" target="mG6_NIqGRWCfFRHksOBy-2">
          <mxGeometry relative="1" as="geometry" />
        </mxCell>
        <mxCell id="mG6_NIqGRWCfFRHksOBy-62" value="Continue" style="rhombus;whiteSpace=wrap;html=1;" vertex="1" parent="dNxyNK7c78bLwvsdeMH5-20">
          <mxGeometry x="440" y="8.75" width="80" height="31.25" as="geometry" />
        </mxCell>
        <mxCell id="mG6_NIqGRWCfFRHksOBy-71" value="Request sender towards client software" style="rounded=1;whiteSpace=wrap;html=1;" vertex="1" parent="dNxyNK7c78bLwvsdeMH5-20">
          <mxGeometry x="100" y="60" width="50" height="220" as="geometry" />
        </mxCell>
        <mxCell id="mG6_NIqGRWCfFRHksOBy-102" value="yes" style="text;html=1;strokeColor=none;fillColor=none;align=center;verticalAlign=middle;whiteSpace=wrap;rounded=0;" vertex="1" parent="dNxyNK7c78bLwvsdeMH5-20">
          <mxGeometry x="450" y="34" width="30" height="20" as="geometry" />
        </mxCell>
        <mxCell id="mG6_NIqGRWCfFRHksOBy-103" value="no" style="text;html=1;strokeColor=none;fillColor=none;align=center;verticalAlign=middle;whiteSpace=wrap;rounded=0;" vertex="1" parent="dNxyNK7c78bLwvsdeMH5-20">
          <mxGeometry x="521" y="5" width="20" height="20" as="geometry" />
        </mxCell>
        <mxCell id="mG6_NIqGRWCfFRHksOBy-110" style="edgeStyle=orthogonalEdgeStyle;rounded=0;jumpStyle=arc;orthogonalLoop=1;jettySize=auto;html=1;exitX=0.5;exitY=1;exitDx=0;exitDy=0;entryX=0.5;entryY=0;entryDx=0;entryDy=0;endArrow=classic;endFill=1;" edge="1" parent="dNxyNK7c78bLwvsdeMH5-20" source="mG6_NIqGRWCfFRHksOBy-107" target="mG6_NIqGRWCfFRHksOBy-109">
          <mxGeometry relative="1" as="geometry" />
        </mxCell>
        <mxCell id="mG6_NIqGRWCfFRHksOBy-107" value="PDSP Test" style="rounded=1;whiteSpace=wrap;html=1;strokeColor=#000000;" vertex="1" parent="dNxyNK7c78bLwvsdeMH5-20">
          <mxGeometry x="440" y="129" width="80" height="31" as="geometry" />
        </mxCell>
        <mxCell id="mG6_NIqGRWCfFRHksOBy-112" style="edgeStyle=orthogonalEdgeStyle;rounded=0;jumpStyle=arc;orthogonalLoop=1;jettySize=auto;html=1;exitX=0.5;exitY=1;exitDx=0;exitDy=0;entryX=0.5;entryY=0;entryDx=0;entryDy=0;endArrow=classic;endFill=1;" edge="1" parent="dNxyNK7c78bLwvsdeMH5-20" source="mG6_NIqGRWCfFRHksOBy-109" target="mG6_NIqGRWCfFRHksOBy-111">
          <mxGeometry relative="1" as="geometry" />
        </mxCell>
        <mxCell id="mG6_NIqGRWCfFRHksOBy-109" value="Take RRP with stick &amp;amp; Request vision check" style="rounded=0;whiteSpace=wrap;html=1;strokeColor=#000000;" vertex="1" parent="dNxyNK7c78bLwvsdeMH5-20">
          <mxGeometry x="440" y="174.75" width="80" height="56.5" as="geometry" />
        </mxCell>
        <mxCell id="mG6_NIqGRWCfFRHksOBy-117" style="edgeStyle=orthogonalEdgeStyle;rounded=0;jumpStyle=arc;orthogonalLoop=1;jettySize=auto;html=1;exitX=1;exitY=0.5;exitDx=0;exitDy=0;entryX=0;entryY=0.5;entryDx=0;entryDy=0;endArrow=classic;endFill=1;" edge="1" parent="dNxyNK7c78bLwvsdeMH5-20" source="mG6_NIqGRWCfFRHksOBy-111">
          <mxGeometry relative="1" as="geometry">
            <mxPoint x="560" y="263.5" as="targetPoint" />
          </mxGeometry>
        </mxCell>
        <mxCell id="mG6_NIqGRWCfFRHksOBy-111" value="Continue" style="rhombus;whiteSpace=wrap;html=1;" vertex="1" parent="dNxyNK7c78bLwvsdeMH5-20">
          <mxGeometry x="440" y="246.25" width="80" height="34.5" as="geometry" />
        </mxCell>
        <mxCell id="mG6_NIqGRWCfFRHksOBy-118" value="Prepare test and request recording" style="rounded=0;whiteSpace=wrap;html=1;strokeColor=#000000;" vertex="1" parent="dNxyNK7c78bLwvsdeMH5-20">
          <mxGeometry x="560" y="242.5" width="80" height="44" as="geometry" />
        </mxCell>
        <mxCell id="mG6_NIqGRWCfFRHksOBy-119" value="Insertion Test" style="rounded=1;whiteSpace=wrap;html=1;strokeColor=#000000;" vertex="1" parent="dNxyNK7c78bLwvsdeMH5-20">
          <mxGeometry x="560" y="194" width="80" height="31" as="geometry" />
        </mxCell>
        <mxCell id="mG6_NIqGRWCfFRHksOBy-120" value="Request stop recording" style="rounded=0;whiteSpace=wrap;html=1;strokeColor=#000000;" vertex="1" parent="dNxyNK7c78bLwvsdeMH5-20">
          <mxGeometry x="560" y="145" width="80" height="31" as="geometry" />
        </mxCell>
        <mxCell id="dNxyNK7c78bLwvsdeMH5-21" value="&lt;font style=&quot;font-size: 14px&quot;&gt;Client Software&lt;/font&gt;" style="swimlane;html=1;startSize=30;horizontal=0;direction=east;" parent="dNxyNK7c78bLwvsdeMH5-19" vertex="1">
          <mxGeometry x="30" y="310" width="1120" height="171" as="geometry">
            <mxRectangle x="30" y="280" width="1120" height="30" as="alternateBounds" />
          </mxGeometry>
        </mxCell>
        <mxCell id="nUQ44olHulVj-gxKj5vN-8" value="" style="html=1;points=[];perimeter=orthogonalPerimeter;fillColor=#000000;strokeColor=none;" parent="dNxyNK7c78bLwvsdeMH5-21" vertex="1">
          <mxGeometry x="75" y="-294" width="5" height="756" as="geometry" />
        </mxCell>
        <mxCell id="nUQ44olHulVj-gxKj5vN-65" style="edgeStyle=orthogonalEdgeStyle;rounded=0;orthogonalLoop=1;jettySize=auto;html=1;exitX=0.5;exitY=1;exitDx=0;exitDy=0;entryX=0.5;entryY=0;entryDx=0;entryDy=0;" parent="dNxyNK7c78bLwvsdeMH5-21" source="nUQ44olHulVj-gxKj5vN-62" target="nUQ44olHulVj-gxKj5vN-64" edge="1">
          <mxGeometry relative="1" as="geometry" />
        </mxCell>
        <mxCell id="nUQ44olHulVj-gxKj5vN-62" value="Modify settings" style="rounded=1;whiteSpace=wrap;html=1;strokeColor=#000000;" parent="dNxyNK7c78bLwvsdeMH5-21" vertex="1">
          <mxGeometry x="100" y="28" width="50" height="32" as="geometry" />
        </mxCell>
        <mxCell id="nUQ44olHulVj-gxKj5vN-63" value="" style="endArrow=classic;html=1;entryX=0;entryY=0.5;entryDx=0;entryDy=0;" parent="dNxyNK7c78bLwvsdeMH5-21" source="nUQ44olHulVj-gxKj5vN-8" target="nUQ44olHulVj-gxKj5vN-62" edge="1">
          <mxGeometry width="50" height="50" relative="1" as="geometry">
            <mxPoint x="90" y="220" as="sourcePoint" />
            <mxPoint x="110" y="220" as="targetPoint" />
          </mxGeometry>
        </mxCell>
        <mxCell id="nUQ44olHulVj-gxKj5vN-64" value="Wait to service" style="rounded=1;whiteSpace=wrap;html=1;strokeColor=#000000;" parent="dNxyNK7c78bLwvsdeMH5-21" vertex="1">
          <mxGeometry x="100" y="78" width="50" height="30" as="geometry" />
        </mxCell>
        <mxCell id="nUQ44olHulVj-gxKj5vN-76" value="Exit" style="rounded=1;whiteSpace=wrap;html=1;strokeColor=#000000;" parent="dNxyNK7c78bLwvsdeMH5-21" vertex="1">
          <mxGeometry x="1030" y="48" width="40" height="30" as="geometry" />
        </mxCell>
        <mxCell id="r1U6TLojHARvJoq6I-ag-7" value="Request receiver towards Universal Robot" style="rounded=0;whiteSpace=wrap;html=1;" parent="dNxyNK7c78bLwvsdeMH5-21" vertex="1">
          <mxGeometry x="192.5" y="23" width="385" height="22" as="geometry" />
        </mxCell>
        <mxCell id="r1U6TLojHARvJoq6I-ag-37" value="Response sender towards Universal Robot" style="rounded=1;whiteSpace=wrap;html=1;" parent="dNxyNK7c78bLwvsdeMH5-21" vertex="1">
          <mxGeometry x="590" y="23" width="390" height="22" as="geometry" />
        </mxCell>
        <mxCell id="r1U6TLojHARvJoq6I-ag-45" value="Request resolver" style="rounded=1;whiteSpace=wrap;html=1;" parent="dNxyNK7c78bLwvsdeMH5-21" vertex="1">
          <mxGeometry x="192.5" y="60.5" width="70" height="37.5" as="geometry" />
        </mxCell>
        <mxCell id="r1U6TLojHARvJoq6I-ag-144" value="Request sender to ATI sensor" style="rounded=1;whiteSpace=wrap;html=1;glass=0;" parent="dNxyNK7c78bLwvsdeMH5-21" vertex="1">
          <mxGeometry x="192.5" y="108" width="167.5" height="22" as="geometry" />
        </mxCell>
        <mxCell id="r1U6TLojHARvJoq6I-ag-146" value="Response receiver from ATI sensor" style="rounded=0;whiteSpace=wrap;html=1;glass=0;" parent="dNxyNK7c78bLwvsdeMH5-21" vertex="1">
          <mxGeometry x="380" y="108" width="197.5" height="22" as="geometry" />
        </mxCell>
        <mxCell id="dNxyNK7c78bLwvsdeMH5-22" value="&lt;font style=&quot;font-size: 14px&quot;&gt;§&lt;/font&gt;" style="swimlane;html=1;startSize=30;horizontal=0;direction=east;" parent="dNxyNK7c78bLwvsdeMH5-19" vertex="1">
          <mxGeometry x="30" y="481" width="1120" height="140" as="geometry">
            <mxRectangle x="30" y="470" width="1120" height="30" as="alternateBounds" />
          </mxGeometry>
        </mxCell>
        <mxCell id="nUQ44olHulVj-gxKj5vN-50" style="edgeStyle=orthogonalEdgeStyle;rounded=0;orthogonalLoop=1;jettySize=auto;html=1;exitX=0.5;exitY=1;exitDx=0;exitDy=0;" parent="dNxyNK7c78bLwvsdeMH5-22" source="nUQ44olHulVj-gxKj5vN-25" target="nUQ44olHulVj-gxKj5vN-28" edge="1">
          <mxGeometry relative="1" as="geometry" />
        </mxCell>
        <mxCell id="nUQ44olHulVj-gxKj5vN-25" value="Set up" style="rounded=1;whiteSpace=wrap;html=1;strokeColor=#000000;" parent="dNxyNK7c78bLwvsdeMH5-22" vertex="1">
          <mxGeometry x="100" y="20" width="50" height="20" as="geometry" />
        </mxCell>
        <mxCell id="nUQ44olHulVj-gxKj5vN-28" value="Wait to service" style="rounded=1;whiteSpace=wrap;html=1;strokeColor=#000000;" parent="dNxyNK7c78bLwvsdeMH5-22" vertex="1">
          <mxGeometry x="100" y="59.5" width="50" height="30" as="geometry" />
        </mxCell>
        <mxCell id="nUQ44olHulVj-gxKj5vN-72" value="" style="html=1;points=[];perimeter=orthogonalPerimeter;fillColor=#000000;strokeColor=none;" parent="dNxyNK7c78bLwvsdeMH5-22" vertex="1">
          <mxGeometry x="1075" y="-450" width="5" height="747" as="geometry" />
        </mxCell>
        <mxCell id="nUQ44olHulVj-gxKj5vN-75" value="" style="html=1;points=[];perimeter=orthogonalPerimeter;fillColor=#000000;strokeColor=none;" parent="dNxyNK7c78bLwvsdeMH5-22" vertex="1">
          <mxGeometry x="1020" y="-167.5" width="5" height="465" as="geometry" />
        </mxCell>
        <mxCell id="nUQ44olHulVj-gxKj5vN-80" value="Shut down" style="rounded=1;whiteSpace=wrap;html=1;strokeColor=#000000;" parent="dNxyNK7c78bLwvsdeMH5-22" vertex="1">
          <mxGeometry x="1030" y="55" width="40" height="30" as="geometry" />
        </mxCell>
        <mxCell id="r1U6TLojHARvJoq6I-ag-147" value="ATI sensor Request sender" style="rounded=1;whiteSpace=wrap;html=1;glass=0;" parent="dNxyNK7c78bLwvsdeMH5-22" vertex="1">
          <mxGeometry x="190" y="18" width="157.5" height="22" as="geometry" />
        </mxCell>
        <mxCell id="HfOS3BHASftBbdev7kgE-7" value="&lt;font style=&quot;font-size: 14px&quot;&gt;Camera 1&lt;/font&gt;" style="swimlane;html=1;startSize=30;horizontal=0;direction=east;" parent="dNxyNK7c78bLwvsdeMH5-19" vertex="1">
          <mxGeometry x="30" y="621" width="1120" height="80" as="geometry">
            <mxRectangle x="30" y="600" width="1120" height="30" as="alternateBounds" />
          </mxGeometry>
        </mxCell>
        <mxCell id="nUQ44olHulVj-gxKj5vN-52" style="edgeStyle=orthogonalEdgeStyle;rounded=0;orthogonalLoop=1;jettySize=auto;html=1;exitX=0.5;exitY=1;exitDx=0;exitDy=0;entryX=0.5;entryY=0;entryDx=0;entryDy=0;" parent="HfOS3BHASftBbdev7kgE-7" source="nUQ44olHulVj-gxKj5vN-26" target="nUQ44olHulVj-gxKj5vN-46" edge="1">
          <mxGeometry relative="1" as="geometry" />
        </mxCell>
        <mxCell id="nUQ44olHulVj-gxKj5vN-26" value="Set up" style="rounded=1;whiteSpace=wrap;html=1;strokeColor=#000000;" parent="HfOS3BHASftBbdev7kgE-7" vertex="1">
          <mxGeometry x="100" y="10" width="50" height="20" as="geometry" />
        </mxCell>
        <mxCell id="nUQ44olHulVj-gxKj5vN-46" value="Wait to service" style="rounded=1;whiteSpace=wrap;html=1;strokeColor=#000000;" parent="HfOS3BHASftBbdev7kgE-7" vertex="1">
          <mxGeometry x="100" y="44" width="50" height="30" as="geometry" />
        </mxCell>
        <mxCell id="nUQ44olHulVj-gxKj5vN-81" value="Unplug" style="rounded=1;whiteSpace=wrap;html=1;strokeColor=#000000;" parent="HfOS3BHASftBbdev7kgE-7" vertex="1">
          <mxGeometry x="1030" y="28" width="40" height="30" as="geometry" />
        </mxCell>
        <mxCell id="nUQ44olHulVj-gxKj5vN-1" value="&lt;font style=&quot;font-size: 14px&quot;&gt;Camera 2&lt;/font&gt;" style="swimlane;html=1;startSize=30;horizontal=0;direction=east;" parent="dNxyNK7c78bLwvsdeMH5-19" vertex="1">
          <mxGeometry x="30" y="701" width="1120" height="80" as="geometry">
            <mxRectangle x="30" y="600" width="1120" height="30" as="alternateBounds" />
          </mxGeometry>
        </mxCell>
        <mxCell id="nUQ44olHulVj-gxKj5vN-53" style="edgeStyle=orthogonalEdgeStyle;rounded=0;orthogonalLoop=1;jettySize=auto;html=1;exitX=0.5;exitY=1;exitDx=0;exitDy=0;entryX=0.5;entryY=0;entryDx=0;entryDy=0;" parent="nUQ44olHulVj-gxKj5vN-1" source="nUQ44olHulVj-gxKj5vN-27" target="nUQ44olHulVj-gxKj5vN-47" edge="1">
          <mxGeometry relative="1" as="geometry" />
        </mxCell>
        <mxCell id="nUQ44olHulVj-gxKj5vN-27" value="Set up" style="rounded=1;whiteSpace=wrap;html=1;strokeColor=#000000;" parent="nUQ44olHulVj-gxKj5vN-1" vertex="1">
          <mxGeometry x="100" y="10" width="50" height="20" as="geometry" />
        </mxCell>
        <mxCell id="nUQ44olHulVj-gxKj5vN-47" value="Wait to service" style="rounded=1;whiteSpace=wrap;html=1;strokeColor=#000000;" parent="nUQ44olHulVj-gxKj5vN-1" vertex="1">
          <mxGeometry x="100" y="44" width="50" height="30" as="geometry" />
        </mxCell>
        <mxCell id="nUQ44olHulVj-gxKj5vN-82" value="Unplug" style="rounded=1;whiteSpace=wrap;html=1;strokeColor=#000000;" parent="nUQ44olHulVj-gxKj5vN-1" vertex="1">
          <mxGeometry x="1030" y="30" width="40" height="30" as="geometry" />
        </mxCell>
        <mxCell id="nUQ44olHulVj-gxKj5vN-9" style="edgeStyle=orthogonalEdgeStyle;orthogonalLoop=1;jettySize=auto;html=1;exitX=0.5;exitY=1;exitDx=0;exitDy=0;rounded=0;" parent="dNxyNK7c78bLwvsdeMH5-19" source="nUQ44olHulVj-gxKj5vN-4" edge="1">
          <mxGeometry relative="1" as="geometry">
            <Array as="points">
              <mxPoint x="85" y="173" />
            </Array>
            <mxPoint x="104" y="173" as="targetPoint" />
          </mxGeometry>
        </mxCell>
        <mxCell id="nUQ44olHulVj-gxKj5vN-49" value="" style="endArrow=classic;html=1;entryX=0;entryY=0.5;entryDx=0;entryDy=0;" parent="dNxyNK7c78bLwvsdeMH5-19" source="nUQ44olHulVj-gxKj5vN-8" target="nUQ44olHulVj-gxKj5vN-25" edge="1">
          <mxGeometry width="50" height="50" relative="1" as="geometry">
            <mxPoint x="510" y="380" as="sourcePoint" />
            <mxPoint x="560" y="330" as="targetPoint" />
          </mxGeometry>
        </mxCell>
        <mxCell id="nUQ44olHulVj-gxKj5vN-54" value="" style="endArrow=classic;html=1;entryX=0;entryY=0.5;entryDx=0;entryDy=0;" parent="dNxyNK7c78bLwvsdeMH5-19" source="nUQ44olHulVj-gxKj5vN-8" target="nUQ44olHulVj-gxKj5vN-26" edge="1">
          <mxGeometry width="50" height="50" relative="1" as="geometry">
            <mxPoint x="120" y="500" as="sourcePoint" />
            <mxPoint x="140" y="500" as="targetPoint" />
          </mxGeometry>
        </mxCell>
        <mxCell id="nUQ44olHulVj-gxKj5vN-55" value="" style="endArrow=classic;html=1;entryX=0;entryY=0.5;entryDx=0;entryDy=0;" parent="dNxyNK7c78bLwvsdeMH5-19" source="nUQ44olHulVj-gxKj5vN-8" target="nUQ44olHulVj-gxKj5vN-27" edge="1">
          <mxGeometry width="50" height="50" relative="1" as="geometry">
            <mxPoint x="130" y="510" as="sourcePoint" />
            <mxPoint x="150" y="510" as="targetPoint" />
          </mxGeometry>
        </mxCell>
        <mxCell id="nUQ44olHulVj-gxKj5vN-68" value="" style="endArrow=classic;html=1;entryX=0;entryY=0.5;entryDx=0;entryDy=0;" parent="dNxyNK7c78bLwvsdeMH5-19" source="nUQ44olHulVj-gxKj5vN-8" target="nUQ44olHulVj-gxKj5vN-67" edge="1">
          <mxGeometry width="50" height="50" relative="1" as="geometry">
            <mxPoint x="120" y="334" as="sourcePoint" />
            <mxPoint x="140" y="334" as="targetPoint" />
          </mxGeometry>
        </mxCell>
        <mxCell id="nUQ44olHulVj-gxKj5vN-73" value="" style="endArrow=classic;html=1;entryX=0.5;entryY=1;entryDx=0;entryDy=0;rounded=0;" parent="dNxyNK7c78bLwvsdeMH5-19" source="nUQ44olHulVj-gxKj5vN-72" target="nUQ44olHulVj-gxKj5vN-3" edge="1">
          <mxGeometry width="50" height="50" relative="1" as="geometry">
            <mxPoint x="660" y="468" as="sourcePoint" />
            <mxPoint x="710" y="418" as="targetPoint" />
            <Array as="points">
              <mxPoint x="1130" y="414" />
            </Array>
          </mxGeometry>
        </mxCell>
        <mxCell id="nUQ44olHulVj-gxKj5vN-79" value="" style="endArrow=classic;html=1;rounded=0;edgeStyle=orthogonalEdgeStyle;entryX=0.163;entryY=0.04;entryDx=0;entryDy=0;entryPerimeter=0;" parent="dNxyNK7c78bLwvsdeMH5-19" source="nUQ44olHulVj-gxKj5vN-74" edge="1" target="nUQ44olHulVj-gxKj5vN-75">
          <mxGeometry width="50" height="50" relative="1" as="geometry">
            <mxPoint x="1052" y="51" as="sourcePoint" />
            <mxPoint x="1050" y="308" as="targetPoint" />
            <Array as="points">
              <mxPoint x="1090" y="98" />
              <mxPoint x="1090" y="298" />
              <mxPoint x="1030" y="298" />
              <mxPoint x="1030" y="332" />
            </Array>
          </mxGeometry>
        </mxCell>
        <mxCell id="mG6_NIqGRWCfFRHksOBy-79" style="edgeStyle=orthogonalEdgeStyle;rounded=0;jumpStyle=arc;orthogonalLoop=1;jettySize=auto;html=1;exitX=0.5;exitY=1;exitDx=0;exitDy=0;entryX=0.092;entryY=0.067;entryDx=0;entryDy=0;entryPerimeter=0;dashed=1;dashPattern=1 2;endArrow=blockThin;endFill=1;" edge="1" parent="dNxyNK7c78bLwvsdeMH5-19" source="mG6_NIqGRWCfFRHksOBy-71" target="r1U6TLojHARvJoq6I-ag-7">
          <mxGeometry relative="1" as="geometry">
            <Array as="points">
              <mxPoint x="155" y="300" />
              <mxPoint x="258" y="300" />
            </Array>
          </mxGeometry>
        </mxCell>
        <mxCell id="HfOS3BHASftBbdev7kgE-1" value="" style="endArrow=none;html=1;strokeWidth=2;" parent="1" edge="1">
          <mxGeometry width="50" height="50" relative="1" as="geometry">
            <mxPoint x="4" y="37" as="sourcePoint" />
            <mxPoint x="1164" y="37" as="targetPoint" />
          </mxGeometry>
        </mxCell>
        <mxCell id="nUQ44olHulVj-gxKj5vN-57" value="+" style="html=1;points=[];perimeter=orthogonalPerimeter;fillColor=#000000;strokeColor=none;" parent="1" vertex="1">
          <mxGeometry x="210" y="368" width="5" height="447" as="geometry" />
        </mxCell>
        <mxCell id="nUQ44olHulVj-gxKj5vN-69" value="" style="endArrow=classic;html=1;rounded=0;edgeStyle=orthogonalEdgeStyle;" parent="1" source="nUQ44olHulVj-gxKj5vN-57" edge="1">
          <mxGeometry width="50" height="50" relative="1" as="geometry">
            <mxPoint x="214.33500000000004" y="484.65" as="sourcePoint" />
            <mxPoint x="239" y="97" as="targetPoint" />
            <Array as="points">
              <mxPoint x="225" y="485" />
              <mxPoint x="225" y="360" />
              <mxPoint x="130" y="360" />
              <mxPoint x="130" y="81" />
              <mxPoint x="239" y="81" />
            </Array>
          </mxGeometry>
        </mxCell>
      </root>
    </mxGraphModel>
  </diagram>
</mxfile>
